<?xml version="1.0" encoding="UTF-8"?>
<svg xmlns="http://www.w3.org/2000/svg" xmlns:xlink="http://www.w3.org/1999/xlink" width="450px" height="450px" viewBox="0 0 450 450" version="1.1" fill="rgba(255, 255, 255)">
<g id="surface1">
<path style=" stroke:none;fill-rule:nonzero;fill-opacity:1;" d="M 309.375 398.8125 L 98.4375 398.8125 C 49.121094 398.8125 9 358.679688 9 309.375 C 9 260.070312 49.121094 219.9375 98.4375 219.9375 L 140.625 219.9375 L 140.625 230.0625 L 98.4375 230.0625 C 54.703125 230.0625 19.125 265.640625 19.125 309.375 C 19.125 353.109375 54.703125 388.6875 98.4375 388.6875 L 309.375 388.6875 Z M 351.5625 230.0625 L 309.375 230.0625 L 309.375 219.9375 L 351.5625 219.9375 C 395.296875 219.9375 430.875 184.359375 430.875 140.625 C 430.875 96.890625 395.296875 61.3125 351.5625 61.3125 L 140.625 61.3125 L 140.625 51.1875 L 351.5625 51.1875 C 400.878906 51.1875 441 91.308594 441 140.625 C 441 189.941406 400.878906 230.0625 351.5625 230.0625 Z M 219.9375 234.070312 L 219.9375 249.609375 C 219.9375 252.40625 222.203125 254.671875 225 254.671875 C 227.796875 254.671875 230.0625 252.40625 230.0625 249.609375 L 230.0625 234.070312 C 233.28125 232.269531 235.546875 228.953125 235.546875 225 C 235.546875 219.179688 230.820312 214.453125 225 214.453125 C 219.179688 214.453125 214.453125 219.179688 214.453125 225 C 214.453125 228.953125 216.71875 232.269531 219.9375 234.070312 Z M 98.4375 9 L 14.0625 9 C 11.265625 9 9 11.265625 9 14.0625 L 9 98.4375 C 9 101.234375 11.265625 103.5 14.0625 103.5 L 98.4375 103.5 C 101.234375 103.5 103.5 101.234375 103.5 98.4375 L 103.5 14.0625 C 103.5 11.265625 101.234375 9 98.4375 9 Z M 93.375 93.375 L 19.125 93.375 L 19.125 19.125 L 93.375 19.125 C 93.375 19.125 93.375 93.375 93.375 93.375 Z M 281.25 177.75 L 258.1875 177.75 L 258.1875 147.585938 C 258.1875 129.320312 243.296875 114.46875 225 114.46875 C 206.703125 114.46875 191.8125 129.320312 191.8125 147.585938 L 191.8125 177.75 L 168.75 177.75 C 165.953125 177.75 163.6875 180.015625 163.6875 182.8125 L 163.6875 281.25 C 163.6875 284.046875 165.953125 286.3125 168.75 286.3125 L 281.25 286.3125 C 284.046875 286.3125 286.3125 284.046875 286.3125 281.25 L 286.3125 182.8125 C 286.3125 180.015625 284.046875 177.75 281.25 177.75 Z M 201.9375 147.585938 C 201.9375 134.914062 212.289062 124.59375 225 124.59375 C 237.710938 124.59375 248.0625 134.914062 248.0625 147.585938 L 248.0625 177.75 L 201.9375 177.75 Z M 276.1875 276.1875 L 173.8125 276.1875 L 173.8125 187.875 L 276.1875 187.875 Z M 435.9375 346.5 L 351.5625 346.5 C 348.765625 346.5 346.5 348.765625 346.5 351.5625 L 346.5 435.9375 C 346.5 438.734375 348.765625 441 351.5625 441 L 435.9375 441 C 438.734375 441 441 438.734375 441 435.9375 L 441 351.5625 C 441 348.765625 438.734375 346.5 435.9375 346.5 Z M 430.875 430.875 L 356.625 430.875 L 356.625 356.625 L 430.859375 356.625 Z M 430.875 430.875 "/>
</g>
</svg>
