<?xml version="1.0" ?><svg width="512px" height="512px" viewBox="0 0 512 512" xmlns="http://www.w3.org/2000/svg" fill="rgba(255, 255, 255)"><g id="Fingerprint_scan"><path d="M454,31H58A26.9635,26.9635,0,0,0,31,58V454a27.02,27.02,0,0,0,27,27H454a27.0225,27.0225,0,0,0,27-27V58A26.9663,26.9663,0,0,0,454,31ZM225.0361,116.0507a118.1831,118.1831,0,0,1,148.86,113.85,9.8987,9.8987,0,1,1-19.7974,0A98.215,98.215,0,0,0,256,131.8007a96.0267,96.0267,0,0,0-25.8311,3.42,9.9226,9.9226,0,0,1-5.1328-19.17ZM256,166a64.1092,64.1092,0,0,1,29.6982,7.2905,9.9028,9.9028,0,0,1-9.18,17.55A42.7651,42.7651,0,0,0,256,185.8007a44.116,44.116,0,0,0-44.1035,44.1V249.61a9.8987,9.8987,0,1,1-19.7974,0V229.9009A63.9722,63.9722,0,0,1,256,166Zm-65.9707-22.23a9.9507,9.9507,0,0,1-.5405,14.0405,98.1588,98.1588,0,0,0-31.5923,72.09v54a9.8987,9.8987,0,1,1-19.7974,0v-54a118.19,118.19,0,0,1,37.982-86.67A9.8386,9.8386,0,0,1,190.0293,143.77ZM57.0991,67A9.87,9.87,0,0,1,67,57.1013h72a9.9,9.9,0,0,1,0,19.8H76.8965V139a9.8987,9.8987,0,1,1-19.7974,0ZM139,454.9009H67A9.87,9.87,0,0,1,57.0991,445V373a9.8987,9.8987,0,1,1,19.7974,0v62.1013H139a9.9,9.9,0,0,1,0,19.8ZM168.7861,343.75a9.809,9.809,0,0,1-6.9257,2.8806,9.9,9.9,0,0,1-7.0225-16.92l19.71-19.62a66.3634,66.3634,0,0,0,8.82-11.25,9.88,9.88,0,0,1,16.831,10.3513A77.29,77.29,0,0,1,188.5,324.0405Zm37.4414,38.9707a9.8963,9.8963,0,0,1-14.04-13.95L212.71,348.25a113.42,113.42,0,0,0,33.39-80.64v-37.71a9.8987,9.8987,0,1,1,19.7974,0v37.71a132.7393,132.7393,0,0,1-39.2388,94.59Zm53.2793,18.99a9.72,9.72,0,0,1-6.9257-2.7895,9.86,9.86,0,0,1-.1846-14.0405,166.8562,166.8562,0,0,0,47.7026-117.27v-37.71a9.8987,9.8987,0,1,1,19.7974,0v37.71A186.4813,186.4813,0,0,1,266.5293,398.741,9.7472,9.7472,0,0,1,259.5068,401.7106Zm74.5225-29.43a9.7161,9.7161,0,0,1-6.57,2.52,9.94,9.94,0,0,1-6.57-17.37,98.0227,98.0227,0,0,0,33.21-73.5293,9.8987,9.8987,0,1,1,19.7974,0A118.25,118.25,0,0,1,334.0293,372.28ZM454.8965,445A9.8694,9.8694,0,0,1,445,454.9009H373a9.9,9.9,0,1,1,0-19.8h62.0991V373a9.8987,9.8987,0,1,1,19.7974,0Zm0-306a9.8987,9.8987,0,1,1-19.7974,0V76.9009H373a9.9,9.9,0,1,1,0-19.8h72A9.8689,9.8689,0,0,1,454.8965,67Z"/></g></svg>